<svg width="450" height="435" viewBox="0 0 450 435" fill="none" xmlns="http://www.w3.org/2000/svg">
<path d="M94.336 299.608L107.008 300.12C110.165 300.12 114.987 299.992 121.472 299.736L123.008 306.648C118.912 306.733 116.181 307.16 114.816 307.928C113.536 308.696 112.896 309.805 112.896 311.256V379.864C112.896 381.4 113.451 382.552 114.56 383.32C115.755 384.088 118.059 384.472 121.472 384.472L123.136 391.384C112.896 391.128 105.899 391 102.144 391C98.3893 391 93.2267 391.128 86.656 391.384L85.12 384.472C89.216 384.387 91.904 383.96 93.184 383.192C94.5493 382.424 95.232 381.315 95.232 379.864V326.616C92.7573 331.821 87.9787 341.848 80.896 356.696C73.8133 371.459 68.4373 382.723 64.768 390.488L61.44 392.024L27.648 323.928V379.864C27.648 381.4 28.2027 382.552 29.312 383.32C30.5067 384.088 32.8107 384.472 36.224 384.472L37.888 391.384C27.648 391.128 21.3333 391 18.944 391C16.5547 391 12.0747 391.128 5.504 391.384L3.968 384.472C11.3067 384.301 14.976 382.765 14.976 379.864V311.256C14.976 308.184 11.8187 306.648 5.504 306.648L3.84 299.736C14.08 299.992 20.992 300.12 24.576 300.12C28.16 300.12 31.0613 299.992 33.28 299.736C34.9013 304.515 37.8453 311.128 42.112 319.576C46.464 327.939 49.2373 333.528 50.432 336.344C52.3947 341.549 57.5147 351.533 65.792 366.296C69.2053 358.616 72.192 351.747 74.752 345.688C77.3973 339.544 79.6587 334.381 81.536 330.2C83.4987 326.019 85.3333 321.965 87.04 318.04C91.904 307.373 94.336 301.229 94.336 299.608ZM158.744 311.256V379.864C158.744 381.4 159.299 382.552 160.408 383.32C161.603 384.088 163.907 384.472 167.32 384.472L168.984 391.384C158.744 391.128 151.747 391 147.992 391C144.237 391 139.075 391.128 132.504 391.384L130.968 384.472C135.064 384.387 137.752 383.96 139.032 383.192C140.397 382.424 141.08 381.315 141.08 379.864V311.256C141.08 309.72 140.483 308.568 139.288 307.8C138.179 307.032 135.917 306.648 132.504 306.648L130.84 299.736C141.08 299.992 148.077 300.12 151.832 300.12C155.672 300.12 160.835 299.992 167.32 299.736L168.856 306.648C164.76 306.733 162.029 307.16 160.664 307.928C159.384 308.696 158.744 309.805 158.744 311.256ZM218.059 391.384L195.019 390.744C190.496 390.744 184.95 390.872 178.379 391.128L176.843 384.216C180.939 384.131 183.627 383.704 184.907 382.936C186.272 382.168 186.955 381.059 186.955 379.608V311.384C186.955 309.848 186.358 308.696 185.163 307.928C184.054 307.16 181.792 306.776 178.379 306.776L176.715 299.864C186.955 300.12 192.928 300.248 194.635 300.248L220.235 299.992C237.131 299.992 250.358 303.832 259.915 311.512C269.472 319.107 274.251 330.072 274.251 344.408C274.251 358.659 269.344 370.051 259.531 378.584C249.803 387.117 235.979 391.384 218.059 391.384ZM221.515 383.32C232.182 383.32 240.331 380.12 245.963 373.72C251.595 367.32 254.411 358.061 254.411 345.944C254.411 333.741 251.168 324.312 244.683 317.656C238.283 310.915 229.11 307.544 217.163 307.544H207.563C205.344 307.544 204.235 307.843 204.235 308.44V374.872C204.235 377.091 204.448 378.669 204.875 379.608C205.302 380.547 206.795 381.4 209.355 382.168C211.915 382.936 215.968 383.32 221.515 383.32ZM295.887 391L280.271 391.512L279.375 384.472C282.362 384.216 284.794 383.491 286.671 382.296C288.548 381.101 289.914 379.821 290.767 378.456C291.62 377.005 292.559 374.872 293.583 372.056L320.335 300.12H331.471L361.679 374.104C363.215 377.944 364.794 380.675 366.415 382.296C368.122 383.832 370.511 384.6 373.583 384.6L374.991 391.384C371.066 391.128 364.623 391 355.663 391C346.703 391 340.218 391.128 336.207 391.384L335.055 384.6C339.578 384.6 342.394 384.301 343.503 383.704C344.612 383.021 345.167 382.253 345.167 381.4C345.167 380.547 344.911 379.565 344.399 378.456L335.823 359.256H308.047L302.671 374.616C302.33 375.555 302.159 376.451 302.159 377.304C302.159 379.096 303.226 380.717 305.359 382.168C307.492 383.619 310.778 384.387 315.215 384.472L316.495 391.512L295.887 391ZM320.719 323.288L310.863 351.064H332.239L320.719 323.288ZM389.72 361.432C391.597 369.368 394.243 375 397.656 378.328C401.069 381.656 405.507 383.32 410.968 383.32C416.429 383.32 420.397 382.04 422.872 379.48C425.347 376.835 426.584 373.592 426.584 369.752C426.584 365.912 425.048 362.541 421.976 359.64C418.989 356.739 415.32 354.221 410.968 352.088C406.701 349.955 402.392 347.693 398.04 345.304C393.773 342.915 390.104 339.8 387.032 335.96C384.045 332.035 382.552 327.512 382.552 322.392C382.552 314.541 385.539 308.611 391.512 304.6C397.485 300.589 405.037 298.584 414.168 298.584C423.384 298.584 431.96 300.461 439.896 304.216C440.749 305.923 441.176 309.549 441.176 315.096C441.176 320.557 440.963 324.824 440.536 327.896L432.472 327.64C431.875 314.157 425.176 307.416 412.376 307.416C408.963 307.416 406.147 308.44 403.928 310.488C401.709 312.451 400.6 315.011 400.6 318.168C400.6 321.325 401.667 324.099 403.8 326.488C406.019 328.877 408.749 330.925 411.992 332.632C415.32 334.253 418.861 336.173 422.616 338.392C426.456 340.525 429.997 342.701 433.24 344.92C436.568 347.053 439.299 349.912 441.432 353.496C443.651 357.08 444.76 361.048 444.76 365.4C444.76 373.08 441.859 379.523 436.056 384.728C430.339 389.933 422.957 392.536 413.912 392.536C404.867 392.536 394.797 390.531 383.704 386.52C383.277 385.155 382.637 381.827 381.784 376.536C381.016 371.245 380.461 366.808 380.12 363.224L389.72 361.432Z" fill="#FDFDFD"/>
<path d="M366 220.097V7.58397L323.631 79.657V250H336.001C352.568 250 366 236.611 366 220.097Z" fill="#D4AF37"/>
<path d="M366 220.097V7.58397L323.631 79.657V250H336.001C352.568 250 366 236.611 366 220.097Z" fill="black" fill-opacity="0.2"/>
<path d="M83 7.58397L125.369 79.6593V250H112.999C96.431 250 83 236.611 83 220.097V7.58397Z" fill="#D4AF37"/>
<path d="M83 7.58397L125.369 79.6593V250H112.999C96.431 250 83 236.611 83 220.097V7.58397Z" fill="black" fill-opacity="0.2"/>
<path d="M90.7194 0H130.155C141.675 0 152.177 6.59647 157.179 16.9737L224.679 157.01L292.18 16.9737C297.182 6.59646 307.684 0 319.204 0H359.526C363.101 0 366 2.89857 366 6.47413V7.71939L323.675 79.5833L236.157 228.183H229.668C219.023 228.183 209.176 222.543 203.79 213.361L125.324 79.5833L83 7.71939C83 3.45609 86.4561 0 90.7194 0Z" fill="url(#paint0_linear_18_92)"/>
<defs>
<linearGradient id="paint0_linear_18_92" x1="-83.6031" y1="354.808" x2="-83.6033" y2="-445.366" gradientUnits="userSpaceOnUse">
<stop offset="0.175516" stop-color="#D4AF37"/>
<stop offset="0.235639" stop-color="#DABC45"/>
<stop offset="0.295761" stop-color="#E0C953"/>
<stop offset="0.387592" stop-color="#FEFFB8"/>
<stop offset="0.433508" stop-color="#E0C953"/>
<stop offset="0.479423" stop-color="#D4AF37"/>
</linearGradient>
</defs>
</svg>
