<svg width="1056" height="250" viewBox="0 0 1056 250" fill="none" xmlns="http://www.w3.org/2000/svg">
<path d="M283 220.097V7.58398L240.631 79.657V250H253.001C269.568 250 283 236.611 283 220.097Z" fill="#D4AF37"/>
<path d="M283 220.097V7.58398L240.631 79.657V250H253.001C269.568 250 283 236.611 283 220.097Z" fill="black" fill-opacity="0.2"/>
<path d="M0 7.58398L42.3685 79.6593V250H29.9989C13.431 250 4.69462e-05 236.611 0 220.097V7.58398Z" fill="#D4AF37"/>
<path d="M0 7.58398L42.3685 79.6593V250H29.9989C13.431 250 4.69462e-05 236.611 0 220.097V7.58398Z" fill="black" fill-opacity="0.2"/>
<path d="M7.71939 0H47.1548C58.6746 0 69.1771 6.59647 74.1791 16.9737L141.679 157.01L209.18 16.9737C214.182 6.59646 224.684 0 236.204 0H276.526C280.101 0 283 2.89857 283 6.47413V7.71939L240.675 79.5833L153.157 228.183H146.668C136.023 228.183 126.176 222.543 120.79 213.361L42.3244 79.5833L0 7.71939C0 3.45609 3.45609 0 7.71939 0Z" fill="url(#paint0_linear_19_146)"/>
<path d="M500.4 12.2L520.2 13C525.133 13 532.667 12.8 542.8 12.4L545.2 23.2C538.8 23.3333 534.533 24 532.4 25.2C530.4 26.4 529.4 28.1333 529.4 30.4V137.6C529.4 140 530.267 141.8 532 143C533.867 144.2 537.467 144.8 542.8 144.8L545.4 155.6C529.4 155.2 518.467 155 512.6 155C506.733 155 498.667 155.2 488.4 155.6L486 144.8C492.4 144.667 496.6 144 498.6 142.8C500.733 141.6 501.8 139.867 501.8 137.6V54.4C497.933 62.5333 490.467 78.2 479.4 101.4C468.333 124.467 459.933 142.067 454.2 154.2L449 156.6L396.2 50.2V137.6C396.2 140 397.067 141.8 398.8 143C400.667 144.2 404.267 144.8 409.6 144.8L412.2 155.6C396.2 155.2 386.333 155 382.6 155C378.867 155 371.867 155.2 361.6 155.6L359.2 144.8C370.667 144.533 376.4 142.133 376.4 137.6V30.4C376.4 25.6 371.467 23.2 361.6 23.2L359 12.4C375 12.8 385.8 13 391.4 13C397 13 401.533 12.8 405 12.4C407.533 19.8667 412.133 30.2 418.8 43.4C425.6 56.4667 429.933 65.2 431.8 69.6C434.867 77.7333 442.867 93.3333 455.8 116.4C461.133 104.4 465.8 93.6667 469.8 84.2C473.933 74.6 477.467 66.5333 480.4 60C483.467 53.4667 486.333 47.1333 489 41C496.6 24.3333 500.4 14.7333 500.4 12.2ZM601.038 30.4V137.6C601.038 140 601.904 141.8 603.638 143C605.504 144.2 609.104 144.8 614.438 144.8L617.038 155.6C601.038 155.2 590.104 155 584.238 155C578.371 155 570.304 155.2 560.038 155.6L557.638 144.8C564.038 144.667 568.238 144 570.238 142.8C572.371 141.6 573.438 139.867 573.438 137.6V30.4C573.438 28 572.504 26.2 570.638 25C568.904 23.8 565.371 23.2 560.038 23.2L557.438 12.4C573.438 12.8 584.371 13 590.238 13C596.238 13 604.304 12.8 614.438 12.4L616.838 23.2C610.438 23.3333 606.171 24 604.038 25.2C602.038 26.4 601.038 28.1333 601.038 30.4ZM693.717 155.6L657.717 154.6C650.651 154.6 641.984 154.8 631.717 155.2L629.317 144.4C635.717 144.267 639.917 143.6 641.917 142.4C644.051 141.2 645.117 139.467 645.117 137.2V30.6C645.117 28.2 644.184 26.4 642.317 25.2C640.584 24 637.051 23.4 631.717 23.4L629.117 12.6C645.117 13 654.451 13.2 657.117 13.2L697.117 12.8C723.517 12.8 744.184 18.8 759.117 30.8C774.051 42.6667 781.517 59.8 781.517 82.2C781.517 104.467 773.851 122.267 758.517 135.6C743.317 148.933 721.717 155.6 693.717 155.6ZM699.117 143C715.784 143 728.517 138 737.317 128C746.117 118 750.517 103.533 750.517 84.6C750.517 65.5333 745.451 50.8 735.317 40.4C725.317 29.8667 710.984 24.6 692.317 24.6H677.317C673.851 24.6 672.117 25.0667 672.117 26V129.8C672.117 133.267 672.451 135.733 673.117 137.2C673.784 138.667 676.117 140 680.117 141.2C684.117 142.4 690.451 143 699.117 143ZM815.323 155L790.923 155.8L789.523 144.8C794.19 144.4 797.99 143.267 800.923 141.4C803.857 139.533 805.99 137.533 807.323 135.4C808.657 133.133 810.123 129.8 811.723 125.4L853.523 13H870.923L918.123 128.6C920.523 134.6 922.99 138.867 925.523 141.4C928.19 143.8 931.923 145 936.723 145L938.923 155.6C932.79 155.2 922.723 155 908.723 155C894.723 155 884.59 155.2 878.323 155.6L876.523 145C883.59 145 887.99 144.533 889.723 143.6C891.457 142.533 892.323 141.333 892.323 140C892.323 138.667 891.923 137.133 891.123 135.4L877.723 105.4H834.323L825.923 129.4C825.39 130.867 825.123 132.267 825.123 133.6C825.123 136.4 826.79 138.933 830.123 141.2C833.457 143.467 838.59 144.667 845.523 144.8L847.523 155.8L815.323 155ZM854.123 49.2L838.723 92.6H872.123L854.123 49.2ZM961.938 108.8C964.871 121.2 969.004 130 974.338 135.2C979.671 140.4 986.604 143 995.138 143C1003.67 143 1009.87 141 1013.74 137C1017.6 132.867 1019.54 127.8 1019.54 121.8C1019.54 115.8 1017.14 110.533 1012.34 106C1007.67 101.467 1001.94 97.5333 995.138 94.2C988.471 90.8667 981.738 87.3333 974.938 83.6C968.271 79.8667 962.538 75 957.738 69C953.071 62.8667 950.738 55.8 950.738 47.8C950.738 35.5333 955.404 26.2667 964.738 20C974.071 13.7333 985.871 10.6 1000.14 10.6C1014.54 10.6 1027.94 13.5333 1040.34 19.4C1041.67 22.0667 1042.34 27.7333 1042.34 36.4C1042.34 44.9333 1042 51.6 1041.34 56.4L1028.74 56C1027.8 34.9333 1017.34 24.4 997.338 24.4C992.004 24.4 987.604 26 984.138 29.2C980.671 32.2667 978.938 36.2667 978.938 41.2C978.938 46.1333 980.604 50.4667 983.938 54.2C987.404 57.9333 991.671 61.1333 996.738 63.8C1001.94 66.3333 1007.47 69.3333 1013.34 72.8C1019.34 76.1333 1024.87 79.5333 1029.94 83C1035.14 86.3333 1039.4 90.8 1042.74 96.4C1046.2 102 1047.94 108.2 1047.94 115C1047.94 127 1043.4 137.067 1034.34 145.2C1025.4 153.333 1013.87 157.4 999.738 157.4C985.604 157.4 969.871 154.267 952.538 148C951.871 145.867 950.871 140.667 949.538 132.4C948.338 124.133 947.471 117.2 946.938 111.6L961.938 108.8Z" fill="#FDFDFD"/>
<path d="M376.87 193.93C371.81 193.93 367.997 195.525 365.43 198.715C362.9 201.868 361.635 205.957 361.635 210.98C361.635 215.967 363.12 220.202 366.09 223.685C369.06 227.168 372.91 228.91 377.64 228.91C384.13 228.91 388.53 226.105 390.84 220.495L392.435 220.825C392.435 221.228 392.068 222.622 391.335 225.005C390.638 227.352 390.125 228.525 389.795 228.525C386.092 230.615 381.673 231.66 376.54 231.66C370.417 231.66 365.43 229.845 361.58 226.215C357.767 222.585 355.86 217.928 355.86 212.245C355.86 205.792 357.84 200.695 361.8 196.955C365.797 193.178 370.948 191.29 377.255 191.29C379.565 191.29 382.297 191.62 385.45 192.28C388.64 192.903 390.4 193.233 390.73 193.27C390.987 193.82 391.115 195.048 391.115 196.955C391.115 198.862 391.023 200.823 390.84 202.84L389.3 202.675C389.007 200.548 388.402 198.898 387.485 197.725C385.505 195.195 381.967 193.93 376.87 193.93ZM417.005 231.66C411.211 231.66 406.445 229.863 402.705 226.27C398.965 222.677 397.095 217.983 397.095 212.19C397.095 206.397 399.075 201.465 403.035 197.395C407.031 193.325 411.926 191.29 417.72 191.29C423.513 191.29 428.243 193.123 431.91 196.79C435.576 200.42 437.41 205.15 437.41 210.98C437.41 216.81 435.466 221.723 431.58 225.72C427.693 229.68 422.835 231.66 417.005 231.66ZM418.545 228.91C422.615 228.91 425.805 227.425 428.115 224.455C430.461 221.448 431.635 217.672 431.635 213.125C431.635 205.535 429.361 200.017 424.815 196.57C422.468 194.773 419.608 193.875 416.235 193.875C412.165 193.875 408.92 195.415 406.5 198.495C404.08 201.575 402.87 205.37 402.87 209.88C402.87 214.94 404.098 219.303 406.555 222.97C407.765 224.803 409.396 226.252 411.45 227.315C413.54 228.378 415.905 228.91 418.545 228.91ZM475.056 191.895L481.271 191.73L481.711 194.15C479.621 194.37 478.337 194.59 477.861 194.81C477.384 195.03 477.146 195.525 477.146 196.295L477.201 231.165C476.944 231.128 476.467 231.11 475.771 231.11C475.074 231.11 474.597 231.128 474.341 231.165L449.316 198.88V226.655C449.316 227.425 449.591 227.938 450.141 228.195C450.691 228.452 451.974 228.653 453.991 228.8L454.486 231.22L448.106 231.055L441.891 231.22L441.451 228.8C443.541 228.58 444.824 228.36 445.301 228.14C445.777 227.92 446.016 227.425 446.016 226.655V196.295C446.016 195.562 445.741 195.067 445.191 194.81C444.677 194.517 443.541 194.297 441.781 194.15L441.286 191.73C441.286 191.73 443.541 191.785 448.051 191.895C449.041 191.895 450.067 191.84 451.131 191.73C451.131 192.317 454.926 197.358 462.516 206.855C468.566 214.262 472.342 219.157 473.846 221.54V196.295C473.846 195.525 473.552 195.012 472.966 194.755C472.416 194.498 471.132 194.297 469.116 194.15L468.621 191.73C468.621 191.73 470.766 191.785 475.056 191.895ZM508.821 194.425H504.421V226.49C504.421 227.26 504.715 227.773 505.301 228.03C505.925 228.287 507.318 228.488 509.481 228.635L509.976 231.055C505.246 230.945 502.716 230.89 502.386 230.89C502.056 230.89 499.471 230.945 494.631 231.055L494.191 228.635C496.648 228.415 498.133 228.213 498.646 228.03C499.16 227.81 499.416 227.297 499.416 226.49V194.425H496.006C494.173 194.425 492.816 194.517 491.936 194.7C489.406 195.213 487.793 197.468 487.096 201.465L485.556 201.575C485.3 200.292 485.171 198.532 485.171 196.295C485.171 194.022 485.3 192.445 485.556 191.565C486.363 191.822 487.811 191.95 489.901 191.95H514.596C516.723 191.95 518.153 191.822 518.886 191.565C519.033 193.142 519.106 194.828 519.106 196.625C519.106 198.422 518.96 200.072 518.666 201.575L517.016 201.41C516.686 198.843 515.916 197.047 514.706 196.02C513.496 194.957 511.535 194.425 508.821 194.425ZM522.497 191.785L529.097 191.95L537.512 191.73C541.545 191.73 544.845 192.592 547.412 194.315C549.978 196.038 551.262 198.678 551.262 202.235C551.262 207.478 548.603 211.017 543.287 212.85C544.057 213.877 545.267 215.527 546.917 217.8C550.473 222.86 552.875 225.977 554.122 227.15C555.405 228.323 556.872 228.983 558.522 229.13L559.237 231.055L555.167 230.89L549.667 231C548.97 230.047 547.118 227.297 544.112 222.75C541.142 218.203 539.143 215.307 538.117 214.06C537.97 213.913 537.768 213.84 537.512 213.84H532.232V226.6C532.232 227.333 532.562 227.847 533.222 228.14C533.882 228.397 535.147 228.598 537.017 228.745L537.512 231.165C532.782 231.055 530.362 231 530.252 231L523.212 231.165L522.772 228.745C524.825 228.525 526.072 228.323 526.512 228.14C526.988 227.92 527.227 227.407 527.227 226.6V196.35C527.227 195.617 526.952 195.122 526.402 194.865C525.888 194.572 524.752 194.352 522.992 194.205L522.497 191.785ZM532.232 195.25V211.2C533.075 211.31 534.285 211.365 535.862 211.365C542.645 211.365 546.037 208.34 546.037 202.29C546.037 199.65 545.175 197.67 543.452 196.35C541.728 194.993 539.492 194.315 536.742 194.315C534.358 194.315 533.002 194.425 532.672 194.645C532.378 194.828 532.232 195.03 532.232 195.25ZM581.36 231.66C575.567 231.66 570.8 229.863 567.06 226.27C563.32 222.677 561.45 217.983 561.45 212.19C561.45 206.397 563.43 201.465 567.39 197.395C571.387 193.325 576.282 191.29 582.075 191.29C587.868 191.29 592.598 193.123 596.265 196.79C599.932 200.42 601.765 205.15 601.765 210.98C601.765 216.81 599.822 221.723 595.935 225.72C592.048 229.68 587.19 231.66 581.36 231.66ZM582.9 228.91C586.97 228.91 590.16 227.425 592.47 224.455C594.817 221.448 595.99 217.672 595.99 213.125C595.99 205.535 593.717 200.017 589.17 196.57C586.823 194.773 583.963 193.875 580.59 193.875C576.52 193.875 573.275 195.415 570.855 198.495C568.435 201.575 567.225 205.37 567.225 209.88C567.225 214.94 568.453 219.303 570.91 222.97C572.12 224.803 573.752 226.252 575.805 227.315C577.895 228.378 580.26 228.91 582.9 228.91ZM612.681 192.005L619.501 191.84L619.941 194.26C617.888 194.48 616.623 194.7 616.146 194.92C615.706 195.103 615.486 195.598 615.486 196.405V224.785C615.486 226.288 615.798 227.278 616.421 227.755C617.045 228.232 617.961 228.47 619.171 228.47H624.506C627.293 228.47 629.475 227.828 631.051 226.545C632.628 225.225 633.875 223.208 634.791 220.495L636.661 220.825C636.661 221.485 636.185 223.355 635.231 226.435C634.278 229.478 633.6 231 633.196 231L619.171 231.11L612.461 231L606.356 231.165L605.916 228.745C608.006 228.525 609.29 228.305 609.766 228.085C610.243 227.865 610.481 227.37 610.481 226.6V196.405C610.481 195.635 610.225 195.122 609.711 194.865C609.198 194.608 608.006 194.407 606.136 194.26L605.641 191.84L612.681 192.005ZM659.335 194.37L653.12 194.425C650.554 194.535 649.27 194.828 649.27 195.305V209.055C649.27 209.422 649.454 209.605 649.82 209.605H658.565C659.445 209.605 660.032 209.202 660.325 208.395C660.655 207.552 660.82 206.012 660.82 203.775L662.635 203.5L662.525 210.815L662.635 217.58L660.82 217.855C660.82 215.692 660.692 214.298 660.435 213.675C660.179 213.052 659.555 212.74 658.565 212.74H649.82C649.454 212.74 649.27 212.905 649.27 213.235V224.785C649.27 226.398 649.6 227.425 650.26 227.865C650.92 228.268 652.369 228.47 654.605 228.47H659.94C662.727 228.47 664.909 227.828 666.485 226.545C668.062 225.225 669.309 223.208 670.225 220.495L672.095 220.825C672.095 221.485 671.619 223.355 670.665 226.435C669.712 229.478 669.034 231 668.63 231L654.605 231.11C653.652 231.11 650.865 231.073 646.245 231L640.14 231.165L639.7 228.745C641.754 228.525 643 228.323 643.44 228.14C643.917 227.92 644.192 227.407 644.265 226.6V196.35C644.265 195.58 644.009 195.067 643.495 194.81C642.982 194.553 641.79 194.352 639.92 194.205L639.425 191.785L646.3 191.95H655.155L668.74 192.005C668.997 192.555 669.125 193.783 669.125 195.69C669.125 197.597 669.034 199.558 668.85 201.575L667.09 201.41C666.65 198.807 665.844 196.992 664.67 195.965C663.497 194.902 661.719 194.37 659.335 194.37ZM705.406 194.37L699.741 194.425C697.175 194.535 695.891 194.828 695.891 195.305V209.055C695.891 209.422 696.075 209.605 696.441 209.605H704.636C705.516 209.605 706.103 209.202 706.396 208.395C706.726 207.552 706.891 206.012 706.891 203.775L708.706 203.5L708.596 210.815L708.706 217.58L706.891 217.855C706.891 215.692 706.763 214.298 706.506 213.675C706.25 213.052 705.626 212.74 704.636 212.74H696.441C696.075 212.74 695.891 212.905 695.891 213.235V226.105C695.891 227.205 696.258 227.92 696.991 228.25C697.761 228.58 699.356 228.745 701.776 228.745L702.326 231.11L694.736 231C694.26 231 691.601 231.055 686.761 231.165L686.321 228.745C688.375 228.525 689.621 228.323 690.061 228.14C690.538 227.92 690.813 227.407 690.886 226.6V196.35C690.886 195.58 690.63 195.067 690.116 194.81C689.603 194.553 688.411 194.352 686.541 194.205L686.046 191.785L692.921 191.95H701.226L714.811 192.005C715.068 192.555 715.196 193.783 715.196 195.69C715.196 197.597 715.105 199.558 714.921 201.575L713.161 201.41C712.721 198.807 711.915 196.992 710.741 195.965C709.568 194.902 707.79 194.37 705.406 194.37ZM718.562 191.785L725.492 191.95C725.529 191.95 727.967 191.895 732.807 191.785L733.247 194.205C730.937 194.425 729.526 194.645 729.012 194.865C728.499 195.048 728.242 195.543 728.242 196.35V226.6C728.242 227.37 728.499 227.883 729.012 228.14C729.526 228.397 730.662 228.598 732.422 228.745L732.917 231.165L725.987 231C725.951 231 723.512 231.055 718.672 231.165L718.232 228.745C720.542 228.525 721.954 228.323 722.467 228.14C722.981 227.92 723.237 227.407 723.237 226.6V196.35C723.237 195.58 722.981 195.067 722.467 194.81C721.954 194.553 720.817 194.352 719.057 194.205L718.562 191.785ZM770.842 191.895L777.057 191.73L777.497 194.15C775.407 194.37 774.124 194.59 773.647 194.81C773.17 195.03 772.932 195.525 772.932 196.295L772.987 231.165C772.73 231.128 772.254 231.11 771.557 231.11C770.86 231.11 770.384 231.128 770.127 231.165L745.102 198.88V226.655C745.102 227.425 745.377 227.938 745.927 228.195C746.477 228.452 747.76 228.653 749.777 228.8L750.272 231.22L743.892 231.055L737.677 231.22L737.237 228.8C739.327 228.58 740.61 228.36 741.087 228.14C741.564 227.92 741.802 227.425 741.802 226.655V196.295C741.802 195.562 741.527 195.067 740.977 194.81C740.464 194.517 739.327 194.297 737.567 194.15L737.072 191.73C737.072 191.73 739.327 191.785 743.837 191.895C744.827 191.895 745.854 191.84 746.917 191.73C746.917 192.317 750.712 197.358 758.302 206.855C764.352 214.262 768.129 219.157 769.632 221.54V196.295C769.632 195.525 769.339 195.012 768.752 194.755C768.202 194.498 766.919 194.297 764.902 194.15L764.407 191.73C764.407 191.73 766.552 191.785 770.842 191.895ZM785.688 230.78L779.968 231L779.418 228.47H779.748C781.434 228.287 782.718 227.828 783.598 227.095C784.514 226.325 785.284 225.078 785.908 223.355L797.568 191.95H800.208L813.188 224.235C813.958 226.032 814.636 227.205 815.223 227.755C815.846 228.305 816.836 228.58 818.193 228.58L818.798 231C815.938 230.817 813.353 230.725 811.043 230.725C808.769 230.725 806.551 230.817 804.388 231L803.893 228.635H804.113C807.009 228.598 808.458 228.085 808.458 227.095C808.458 226.618 807.138 223.355 804.498 217.305H790.803L788.108 224.785C787.998 225.225 787.943 225.61 787.943 225.94C787.943 226.71 788.291 227.297 788.988 227.7C789.684 228.103 790.876 228.36 792.563 228.47L793.223 231L785.688 230.78ZM797.128 199.925L791.848 214.445H803.233L797.128 199.925ZM854.47 191.895L860.685 191.73L861.125 194.15C859.035 194.37 857.751 194.59 857.275 194.81C856.798 195.03 856.56 195.525 856.56 196.295L856.615 231.165C856.358 231.128 855.881 231.11 855.185 231.11C854.488 231.11 854.011 231.128 853.755 231.165L828.73 198.88V226.655C828.73 227.425 829.005 227.938 829.555 228.195C830.105 228.452 831.388 228.653 833.405 228.8L833.9 231.22L827.52 231.055L821.305 231.22L820.865 228.8C822.955 228.58 824.238 228.36 824.715 228.14C825.191 227.92 825.43 227.425 825.43 226.655V196.295C825.43 195.562 825.155 195.067 824.605 194.81C824.091 194.517 822.955 194.297 821.195 194.15L820.7 191.73C820.7 191.73 822.955 191.785 827.465 191.895C828.455 191.895 829.481 191.84 830.545 191.73C830.545 192.317 834.34 197.358 841.93 206.855C847.98 214.262 851.756 219.157 853.26 221.54V196.295C853.26 195.525 852.966 195.012 852.38 194.755C851.83 194.498 850.546 194.297 848.53 194.15L848.035 191.73C848.035 191.73 850.18 191.785 854.47 191.895ZM886.641 193.93C881.581 193.93 877.767 195.525 875.201 198.715C872.671 201.868 871.406 205.957 871.406 210.98C871.406 215.967 872.891 220.202 875.861 223.685C878.831 227.168 882.681 228.91 887.411 228.91C893.901 228.91 898.301 226.105 900.611 220.495L902.206 220.825C902.206 221.228 901.839 222.622 901.106 225.005C900.409 227.352 899.896 228.525 899.566 228.525C895.862 230.615 891.444 231.66 886.311 231.66C880.187 231.66 875.201 229.845 871.351 226.215C867.537 222.585 865.631 217.928 865.631 212.245C865.631 205.792 867.611 200.695 871.571 196.955C875.567 193.178 880.719 191.29 887.026 191.29C889.336 191.29 892.067 191.62 895.221 192.28C898.411 192.903 900.171 193.233 900.501 193.27C900.757 193.82 900.886 195.048 900.886 196.955C900.886 198.862 900.794 200.823 900.611 202.84L899.071 202.675C898.777 200.548 898.172 198.898 897.256 197.725C895.276 195.195 891.737 193.93 886.641 193.93ZM926.225 194.37L920.01 194.425C917.443 194.535 916.16 194.828 916.16 195.305V209.055C916.16 209.422 916.343 209.605 916.71 209.605H925.455C926.335 209.605 926.922 209.202 927.215 208.395C927.545 207.552 927.71 206.012 927.71 203.775L929.525 203.5L929.415 210.815L929.525 217.58L927.71 217.855C927.71 215.692 927.582 214.298 927.325 213.675C927.068 213.052 926.445 212.74 925.455 212.74H916.71C916.343 212.74 916.16 212.905 916.16 213.235V224.785C916.16 226.398 916.49 227.425 917.15 227.865C917.81 228.268 919.258 228.47 921.495 228.47H926.83C929.617 228.47 931.798 227.828 933.375 226.545C934.952 225.225 936.198 223.208 937.115 220.495L938.985 220.825C938.985 221.485 938.508 223.355 937.555 226.435C936.602 229.478 935.923 231 935.52 231L921.495 231.11C920.542 231.11 917.755 231.073 913.135 231L907.03 231.165L906.59 228.745C908.643 228.525 909.89 228.323 910.33 228.14C910.807 227.92 911.082 227.407 911.155 226.6V196.35C911.155 195.58 910.898 195.067 910.385 194.81C909.872 194.553 908.68 194.352 906.81 194.205L906.315 191.785L913.19 191.95H922.045L935.63 192.005C935.887 192.555 936.015 193.783 936.015 195.69C936.015 197.597 935.923 199.558 935.74 201.575L933.98 201.41C933.54 198.807 932.733 196.992 931.56 195.965C930.387 194.902 928.608 194.37 926.225 194.37ZM942.913 191.785L949.843 191.95C949.879 191.95 952.318 191.895 957.158 191.785L957.598 194.205C955.288 194.425 953.876 194.645 953.363 194.865C952.849 195.048 952.593 195.543 952.593 196.35V226.6C952.593 227.37 952.849 227.883 953.363 228.14C953.876 228.397 955.013 228.598 956.773 228.745L957.268 231.165L950.338 231C950.301 231 947.863 231.055 943.023 231.165L942.583 228.745C944.893 228.525 946.304 228.323 946.818 228.14C947.331 227.92 947.588 227.407 947.588 226.6V196.35C947.588 195.58 947.331 195.067 946.818 194.81C946.304 194.553 945.168 194.352 943.408 194.205L942.913 191.785ZM961.422 191.785L968.022 191.95L976.437 191.73C980.471 191.73 983.771 192.592 986.337 194.315C988.904 196.038 990.187 198.678 990.187 202.235C990.187 207.478 987.529 211.017 982.212 212.85C982.982 213.877 984.192 215.527 985.842 217.8C989.399 222.86 991.801 225.977 993.047 227.15C994.331 228.323 995.797 228.983 997.447 229.13L998.162 231.055L994.092 230.89L988.592 231C987.896 230.047 986.044 227.297 983.037 222.75C980.067 218.203 978.069 215.307 977.042 214.06C976.896 213.913 976.694 213.84 976.437 213.84H971.157V226.6C971.157 227.333 971.487 227.847 972.147 228.14C972.807 228.397 974.072 228.598 975.942 228.745L976.437 231.165C971.707 231.055 969.287 231 969.177 231L962.137 231.165L961.697 228.745C963.751 228.525 964.997 228.323 965.437 228.14C965.914 227.92 966.152 227.407 966.152 226.6V196.35C966.152 195.617 965.877 195.122 965.327 194.865C964.814 194.572 963.677 194.352 961.917 194.205L961.422 191.785ZM971.157 195.25V211.2C972.001 211.31 973.211 211.365 974.787 211.365C981.571 211.365 984.962 208.34 984.962 202.29C984.962 199.65 984.101 197.67 982.377 196.35C980.654 194.993 978.417 194.315 975.667 194.315C973.284 194.315 971.927 194.425 971.597 194.645C971.304 194.828 971.157 195.03 971.157 195.25ZM1020.29 231.66C1014.49 231.66 1009.73 229.863 1005.99 226.27C1002.25 222.677 1000.38 217.983 1000.38 212.19C1000.38 206.397 1002.36 201.465 1006.32 197.395C1010.31 193.325 1015.21 191.29 1021 191.29C1026.79 191.29 1031.52 193.123 1035.19 196.79C1038.86 200.42 1040.69 205.15 1040.69 210.98C1040.69 216.81 1038.75 221.723 1034.86 225.72C1030.97 229.68 1026.12 231.66 1020.29 231.66ZM1021.83 228.91C1025.9 228.91 1029.09 227.425 1031.4 224.455C1033.74 221.448 1034.92 217.672 1034.92 213.125C1034.92 205.535 1032.64 200.017 1028.1 196.57C1025.75 194.773 1022.89 193.875 1019.52 193.875C1015.45 193.875 1012.2 195.415 1009.78 198.495C1007.36 201.575 1006.15 205.37 1006.15 209.88C1006.15 214.94 1007.38 219.303 1009.84 222.97C1011.05 224.803 1012.68 226.252 1014.73 227.315C1016.82 228.378 1019.19 228.91 1021.83 228.91Z" fill="white"/>
<defs>
<linearGradient id="paint0_linear_19_146" x1="-166.603" y1="354.808" x2="-166.603" y2="-445.366" gradientUnits="userSpaceOnUse">
<stop offset="0.175516" stop-color="#D4AF37"/>
<stop offset="0.235639" stop-color="#DABC45"/>
<stop offset="0.295761" stop-color="#E0C953"/>
<stop offset="0.387592" stop-color="#FEFFB8"/>
<stop offset="0.433508" stop-color="#E0C953"/>
<stop offset="0.479423" stop-color="#D4AF37"/>
</linearGradient>
</defs>
</svg>
